<svg width="99" height="100" viewBox="0 0 99 100" fill="none" xmlns="http://www.w3.org/2000/svg">
<path d="M98.6646 44.1485C98.8128 45.4327 98.9128 46.7318 98.9628 48.0439L97.9635 48.0819C97.9878 48.7182 98 49.3576 98 50C98 50.6424 97.9878 51.2818 97.9635 51.9181L98.9628 51.9561C98.9128 53.2682 98.8128 54.5673 98.6646 55.8515L97.6712 55.7369C97.5239 57.0137 97.328 58.2754 97.0854 59.5201L98.067 59.7113C97.8163 60.9975 97.5169 62.266 97.1706 63.5147L96.207 63.2475C95.8644 64.483 95.4751 65.6987 95.0411 66.8926L95.9809 67.2342C95.534 68.4635 95.0407 69.6702 94.5032 70.852L93.5929 70.438C93.0628 71.6034 92.4887 72.7442 91.8729 73.8582L92.7481 74.342C92.1164 75.4846 91.4417 76.5995 90.7261 77.6846L89.8913 77.1341C89.1872 78.2016 88.4428 79.2397 87.6602 80.2461L88.4497 80.8599C87.6492 81.8893 86.8097 82.8861 85.9333 83.8481L85.194 83.1746C84.3339 84.1188 83.4374 85.0288 82.5071 85.9023L83.1915 86.6313C82.242 87.5228 81.2577 88.3771 80.241 89.1919L79.6156 88.4115C78.6202 89.2093 77.593 89.9683 76.5364 90.6864L77.0985 91.5135C76.0228 92.2446 74.917 92.9342 73.7835 93.58L73.2885 92.7112C72.182 93.3416 71.0487 93.9293 69.8906 94.4723L70.3151 95.3777C69.139 95.9291 67.9378 96.4352 66.7139 96.8938L66.363 95.9573C65.1733 96.4031 63.9615 96.803 62.7299 97.155L63.0047 98.1165C61.7582 98.4728 60.4917 98.7809 59.2074 99.0389L59.0104 98.0585C57.7677 98.3081 56.5078 98.5097 55.2326 98.6614L55.3507 99.6544C54.0669 99.8071 52.768 99.9102 51.456 99.9617L51.4168 98.9624C50.781 98.9874 50.142 99 49.5 99C48.858 99 48.219 98.9874 47.5832 98.9624L47.544 99.9617C46.232 99.9102 44.9331 99.8071 43.6493 99.6544L43.7674 98.6614C42.4922 98.5097 41.2323 98.3081 39.9896 98.0585L39.7926 99.0389C38.5083 98.781 37.2418 98.4728 35.9953 98.1165L36.2701 97.155C35.0385 96.803 33.8267 96.4031 32.637 95.9573L32.2861 96.8938C31.0622 96.4352 29.861 95.9291 28.6849 95.3777L29.1094 94.4723C27.9513 93.9293 26.818 93.3416 25.7115 92.7112L25.2165 93.58C24.083 92.9342 22.9772 92.2446 21.9015 91.5135L22.4636 90.6864C21.407 89.9683 20.3798 89.2093 19.3844 88.4115L18.759 89.1919C17.7423 88.3771 16.758 87.5228 15.8085 86.6313L16.4929 85.9023C15.5625 85.0288 14.6661 84.1188 13.806 83.1746L13.0667 83.8481C12.1903 82.8861 11.3508 81.8893 10.5503 80.8599L11.3398 80.2461C10.5572 79.2397 9.81277 78.2016 9.10873 77.1341L8.27392 77.6846C7.55832 76.5995 6.88358 75.4846 6.25194 74.342L7.12711 73.8582C6.51125 72.7441 5.9372 71.6034 5.4071 70.438L4.49685 70.852C3.95926 69.6702 3.46596 68.4635 3.01909 67.2342L3.95892 66.8926C3.52492 65.6987 3.13561 64.483 2.79304 63.2475L1.8294 63.5147C1.48314 62.266 1.18368 60.9975 0.933047 59.7113L1.91458 59.5201C1.67203 58.2753 1.47612 57.0136 1.32878 55.7369L0.335376 55.8515C0.187178 54.5673 0.0871563 53.2682 0.0371865 51.9561L1.03646 51.9181C1.01223 51.2818 1 50.6424 1 50C1 49.3576 1.01223 48.7182 1.03646 48.0819L0.037187 48.0439C0.0871571 46.7318 0.187179 45.4327 0.335378 44.1485L1.32878 44.2631C1.47613 42.9863 1.67204 41.7246 1.91459 40.4799L0.933048 40.2887C1.18368 39.0025 1.48314 37.734 1.8294 36.4853L2.79304 36.7525C3.13561 35.517 3.52492 34.3013 3.95892 33.1074L3.01909 32.7658C3.46596 31.5365 3.95926 30.3298 4.49685 29.148L5.40711 29.562C5.93721 28.3966 6.51125 27.2558 7.12711 26.1418L6.25194 25.658C6.88358 24.5155 7.55832 23.4005 8.27392 22.3154L9.10873 22.8659C9.81277 21.7984 10.5572 20.7603 11.3398 19.7539L10.5503 19.1401C11.3508 18.1107 12.1903 17.1139 13.0667 16.1519L13.806 16.8254C14.6661 15.8812 15.5625 14.9712 16.4929 14.0977L15.8085 13.3687C16.758 12.4772 17.7423 11.6229 18.759 10.8081L19.3844 11.5885C20.3798 10.7907 21.407 10.0317 22.4636 9.31358L21.9015 8.48652C22.9772 7.75537 24.083 7.06576 25.2165 6.41996L25.7115 7.28883C26.818 6.65842 27.9513 6.07066 29.1094 5.52774L28.6849 4.6223C29.861 4.07093 31.0622 3.56484 32.2861 3.10624L32.637 4.04267C33.8267 3.5969 35.0385 3.19696 36.2701 2.84496L35.9953 1.88345C37.2418 1.52721 38.5083 1.21905 39.7926 0.961087L39.9896 1.94151C41.2323 1.69191 42.4922 1.49027 43.7674 1.3386L43.6493 0.345599C44.9331 0.192895 46.232 0.0898182 47.544 0.0383214L47.5832 1.03755C48.219 1.0126 48.858 1 49.5 1C50.142 1 50.781 1.0126 51.4168 1.03755L51.456 0.038321C52.768 0.0898175 54.0669 0.192894 55.3507 0.345598L55.2326 1.3386C56.5078 1.49027 57.7677 1.69191 59.0104 1.94151L59.2074 0.961086C60.4917 1.21905 61.7582 1.52721 63.0047 1.88345L62.7299 2.84496C63.9615 3.19696 65.1733 3.5969 66.363 4.04267L66.7139 3.10624C67.9378 3.56484 69.139 4.07093 70.3151 4.62231L69.8906 5.52774C71.0487 6.07066 72.182 6.65842 73.2885 7.28883L73.7835 6.41996C74.917 7.06576 76.0228 7.75537 77.0985 8.48652L76.5364 9.31358C77.593 10.0317 78.6202 10.7907 79.6156 11.5885L80.241 10.8081C81.2577 11.6229 82.242 12.4772 83.1915 13.3687L82.5071 14.0977C83.4374 14.9712 84.3339 15.8812 85.194 16.8254L85.9333 16.1519C86.8097 17.1139 87.6492 18.1107 88.4497 19.1401L87.6602 19.7539C88.4428 20.7603 89.1872 21.7984 89.8913 22.8659L90.7261 22.3154C91.4417 23.4005 92.1164 24.5155 92.7481 25.658L91.8729 26.1418C92.4887 27.2559 93.0628 28.3966 93.5929 29.562L94.5032 29.148C95.0407 30.3298 95.534 31.5365 95.9809 32.7658L95.0411 33.1074C95.4751 34.3013 95.8644 35.517 96.207 36.7525L97.1706 36.4853C97.5169 37.734 97.8163 39.0025 98.067 40.2887L97.0854 40.4799C97.328 41.7247 97.5239 42.9864 97.6712 44.2631L98.6646 44.1485Z" stroke="white" stroke-width="2" stroke-dasharray="4 4"/>
</svg>
