<svg width="54" height="107" viewBox="0 0 54 107" fill="none" xmlns="http://www.w3.org/2000/svg">
<path d="M53 2.26504H54V6.79512H53V11.3252H54V15.8553H53V20.3854H54V24.9154H53V26.2041C52.6136 26.2201 52.2292 26.2439 51.8469 26.2754L51.929 27.272C50.5335 27.387 49.1685 27.6081 47.8423 27.9272L47.6084 26.955C46.2018 27.2935 44.8373 27.7382 43.5241 28.2802L43.9056 29.2045C42.6208 29.7348 41.387 30.3615 40.2135 31.0755L39.6937 30.2212C38.4651 30.9688 37.3002 31.8086 36.209 32.7309L36.8544 33.4946C35.7982 34.3873 34.8134 35.3602 33.9099 36.4037L33.1539 35.7491C32.2167 36.8315 31.3635 37.9873 30.6044 39.2067L31.4534 39.7352C30.7262 40.9033 30.0889 42.1317 29.5508 43.4111L28.629 43.0234C28.0771 44.3356 27.6256 45.6996 27.2843 47.106L28.2561 47.3419C27.9342 48.6679 27.7139 50.033 27.6039 51.4287L26.607 51.3501C26.5511 52.0597 26.5226 52.7766 26.5226 53.5C26.5226 54.2234 26.5511 54.9404 26.607 55.6499L27.6039 55.5713C27.7139 56.967 27.9342 58.3321 28.2561 59.6581L27.2843 59.894C27.6256 61.3004 28.0771 62.6644 28.629 63.9766L29.5508 63.5889C30.0889 64.8683 30.7262 66.0967 31.4534 67.2648L30.6044 67.7933C31.3635 69.0127 32.2167 70.1685 33.1539 71.2509L33.9099 70.5963C34.8134 71.6398 35.7982 72.6127 36.8544 73.5054L36.209 74.2691C37.3002 75.1914 38.4651 76.0312 39.6937 76.7788L40.2135 75.9245C41.387 76.6385 42.6208 77.2652 43.9055 77.7955L43.5241 78.7198C44.8373 79.2618 46.2018 79.7065 47.6084 80.045L47.8423 79.0728C49.1685 79.3919 50.5335 79.613 51.929 79.728L51.8469 80.7246C52.2292 80.7561 52.6136 80.7799 53 80.7959V82.0846H54V86.6146H53V91.1447H54V95.6748H53V100.205H54V104.735H53V105.988C52.7049 105.981 52.4103 105.973 52.1164 105.962L52.0789 106.961C50.7924 106.913 49.5173 106.82 48.2553 106.685L48.362 105.69C47.1051 105.555 45.8613 105.377 44.6323 105.158L44.4563 106.142C43.1912 105.916 41.9413 105.646 40.7085 105.334L40.9534 104.365C39.7303 104.056 38.5242 103.705 37.3368 103.314L37.024 104.264C35.8048 103.862 34.605 103.419 33.4261 102.936L33.8053 102.011C32.6401 101.533 31.4957 101.016 30.374 100.461L29.9304 101.357C28.7814 100.788 27.6557 100.18 26.5552 99.535L27.061 98.6724C25.9761 98.0362 24.916 97.363 23.8826 96.6545L23.3171 97.4792C22.2608 96.7551 21.2318 95.9947 20.232 95.2L20.8542 94.4172C19.8706 93.6353 18.9157 92.8196 17.9915 91.9719L17.3155 92.7088C16.3726 91.8439 15.4609 90.9463 14.5823 90.0177L15.3087 89.3304C14.446 88.4186 13.6159 87.4764 12.8201 86.5057L12.0467 87.1397C11.2364 86.1512 10.4609 85.1335 9.72232 84.0887L10.5389 83.5114C9.81516 82.4876 9.12748 81.4372 8.47765 80.3619L7.62181 80.8791C6.96147 79.7865 6.33946 78.6686 5.7576 77.5274L6.64849 77.0732C6.07979 75.9577 5.55022 74.8196 5.06154 73.6605L4.14009 74.0489C3.64492 72.8744 3.19092 71.6787 2.77986 70.4636L3.72713 70.1432C3.32653 68.9589 2.96751 67.7559 2.6518 66.5358L1.68368 66.7863C1.36505 65.555 1.08967 64.3065 0.859247 63.0426L1.84303 62.8632C1.61924 61.6357 1.43866 60.3933 1.3029 59.1376L0.308697 59.2451C0.172262 57.983 0.0802638 56.7079 0.0342771 55.4211L1.03364 55.3854C1.01128 54.7597 1 54.1312 1 53.5C1 52.8688 1.01128 52.2403 1.03364 51.6146L0.0342776 51.5788C0.0802646 50.2921 0.172263 49.017 0.308699 47.7549L1.30291 47.8624C1.43866 46.6067 1.61924 45.3643 1.84303 44.1367L0.859249 43.9574C1.08967 42.6935 1.36505 41.445 1.68368 40.2137L2.6518 40.4642C2.96752 39.2441 3.32653 38.0411 3.72713 36.8568L2.77987 36.5364C3.19092 35.3213 3.64492 34.1256 4.14009 32.9511L5.06155 33.3395C5.55023 32.1804 6.0798 31.0423 6.6485 29.9268L5.75761 29.4726C6.33946 28.3314 6.96147 27.2135 7.62181 26.1209L8.47766 26.6381C9.12748 25.5628 9.81517 24.5124 10.5389 23.4886L9.72232 22.9113C10.4609 21.8665 11.2364 20.8488 12.0467 19.8603L12.8201 20.4943C13.6159 19.5236 14.446 18.5814 15.3087 17.6696L14.5823 16.9823C15.4609 16.0537 16.3726 15.1561 17.3155 14.2912L17.9915 15.0281C18.9157 14.1804 19.8706 13.3647 20.8542 12.5828L20.232 11.8C21.2318 11.0053 22.2608 10.2449 23.3171 9.52076L23.8825 10.3455C24.916 9.63705 25.9761 8.96382 27.061 8.32762L26.5552 7.46499C27.6557 6.81965 28.7814 6.2117 29.9304 5.64292L30.374 6.53912C31.4957 5.98386 32.64 5.46663 33.8053 4.98914L33.4261 4.06382C34.6049 3.58075 35.8048 3.1376 37.024 2.73609L37.3368 3.6859C38.5242 3.29484 39.7303 2.94401 40.9534 2.63506L40.7084 1.66551C41.9413 1.35407 43.1911 1.0844 44.4563 0.858119L44.6323 1.8425C45.8613 1.62268 47.105 1.44455 48.362 1.30967L48.2553 0.315374C49.5173 0.179949 50.7924 0.0873279 52.0789 0.0390104L52.1164 1.03831C52.4103 1.02727 52.7049 1.01858 53 1.01227V2.26504Z" stroke="white" stroke-width="2" stroke-dasharray="4 4"/>
</svg>
