<svg width="99" height="49" viewBox="0 0 99 49" fill="none" xmlns="http://www.w3.org/2000/svg">
<path d="M2.0625 1V0H6.1875V1H10.3125V0H14.4375V1H18.5625V0H22.6875V1H26.8125V0H30.9375V1H35.0625V0H39.1875V1H43.3125V0H47.4375V1H51.5625V0H55.6875V1H59.8125V0H63.9375V1H68.0625V0H72.1875V1H76.3125V0H80.4375V1H84.5625V0H88.6875V1H92.8125V0H96.9375V1H97.9837C97.9758 1.29727 97.9652 1.59387 97.952 1.88976L98.951 1.93448C98.8929 3.23176 98.7845 4.516 98.6276 5.78531L97.6352 5.66266C97.4794 6.92325 97.2749 8.16872 97.0235 9.39715L98.0032 9.59761C97.7434 10.8671 97.4347 12.1188 97.079 13.3508L96.1183 13.0734C95.7668 14.2907 95.3685 15.4884 94.9255 16.6643L95.8613 17.0168C95.4055 18.2269 94.9032 19.4143 94.3567 20.577L93.4517 20.1516C92.9135 21.2967 92.3315 22.4173 91.7077 23.5114L92.5765 24.0066C91.9373 25.1278 91.2552 26.2216 90.5326 27.2858L89.7053 26.724C88.9953 27.7695 88.2452 28.7858 87.4572 29.7709L88.2381 30.3955C87.4329 31.4021 86.589 32.3766 85.7086 33.3168L84.9787 32.6333C84.1158 33.5547 83.2172 34.4426 82.2849 35.2946L82.9596 36.0327C82.0092 36.9013 81.0246 37.7334 80.0081 38.5268L79.3928 37.7385C78.3987 38.5143 77.3734 39.2523 76.3192 39.9504L76.8713 40.7842C75.7991 41.4941 74.6975 42.1635 73.5688 42.7903L73.0834 41.916C71.9826 42.5271 70.8555 43.0968 69.7042 43.6229L70.1198 44.5325C68.9515 45.0663 67.7588 45.5561 66.5438 45.9999L66.2007 45.0606C65.0206 45.4916 63.819 45.8783 62.5978 46.2185L62.8663 47.1818C61.6314 47.5259 60.377 47.8235 59.1051 48.0726L58.9129 47.0912C57.6823 47.3322 56.4349 47.5269 55.1726 47.6733L55.2878 48.6666C54.0175 48.8139 52.7326 48.9134 51.4348 48.963L51.3966 47.9638C50.7674 47.9879 50.1352 48 49.5 48C48.8648 48 48.2326 47.9879 47.6034 47.9638L47.5652 48.963C46.2674 48.9134 44.9825 48.8139 43.7122 48.6666L43.8274 47.6733C42.5651 47.5269 41.3177 47.3322 40.0871 47.0912L39.8949 48.0726C38.623 47.8235 37.3686 47.5259 36.1337 47.1818L36.4021 46.2185C35.181 45.8783 33.9794 45.4916 32.7992 45.0606L32.4562 45.9999C31.2412 45.5561 30.0485 45.0663 28.8802 44.5324L29.2958 43.6229C28.1445 43.0968 27.0174 42.5271 25.9166 41.916L25.4312 42.7903C24.3025 42.1635 23.2009 41.4941 22.1287 40.7842L22.6808 39.9504C21.6265 39.2523 20.6013 38.5143 19.6072 37.7384L18.9919 38.5268C17.9754 37.7334 16.9908 36.9013 16.0404 36.0327L16.7151 35.2945C15.7828 34.4426 14.8842 33.5547 14.0213 32.6333L13.2914 33.3168C12.411 32.3766 11.567 31.4021 10.7619 30.3955L11.5428 29.7709C10.7548 28.7858 10.0047 27.7695 9.2947 26.7239L8.46743 27.2858C7.74474 26.2216 7.0627 25.1278 6.42351 24.0066L7.29225 23.5114C6.66854 22.4173 6.08651 21.2967 5.5483 20.1516L4.64328 20.577C4.09679 19.4143 3.59454 18.2269 3.13868 17.0168L4.07448 16.6643C3.63147 15.4884 3.2332 14.2907 2.88173 13.0734L1.92097 13.3507C1.56529 12.1188 1.25655 10.8671 0.996791 9.59761L1.97649 9.39714C1.72513 8.16871 1.52058 6.92325 1.3648 5.66266L0.37235 5.78531C0.215489 4.516 0.107071 3.23176 0.0489968 1.93448L1.048 1.88976C1.03475 1.59387 1.02418 1.29728 1.0163 1H2.0625Z" stroke="white" stroke-width="2" stroke-dasharray="4 4"/>
</svg>
