<svg width="141" height="78" viewBox="0 0 141 78" fill="none" xmlns="http://www.w3.org/2000/svg">
<path d="M59.6359 4.5L62.0701 1.5L62.8466 2.13007L63.7635 1H65.23V0H69.1156V1H73.0013V0H76.8869V1H80.7725V0H84.6582V1H88.5438V0H92.4295V1H96.3151V0H100.201V1H104.086V0H107.972V1H111.858V0H115.743V1H119.629V0H123.515V1H127.4V0H131.286V1H135.172V0H139.057V0.807349L139.006 0.869936L139.057 0.911138V1H139.167L139.783 1.5L137.349 4.5L136.572 3.86993L134.138 6.86994L134.915 7.5L132.481 10.5L131.704 9.86993L129.27 12.8699L130.046 13.5L127.612 16.5L126.836 15.8699L124.402 18.8699L125.178 19.5L122.744 22.5L121.968 21.8699L119.533 24.8699L120.31 25.5L117.876 28.5L117.099 27.8699L114.665 30.8699L115.442 31.5L113.008 34.5L112.231 33.8699L109.797 36.8699L110.574 37.5L108.139 40.5L107.363 39.8699L104.929 42.8699L105.705 43.5L103.271 46.5L102.495 45.8699L100.06 48.8699L100.837 49.5L98.4029 52.5L97.6264 51.8699L95.1922 54.8699L95.9688 55.5L93.5347 58.5L92.7581 57.8699L90.324 60.8699L91.1005 61.5L88.6664 64.5L87.8899 63.8699L85.4557 66.8699L86.2323 67.5L83.7982 70.5L83.0216 69.8699L80.5875 72.8699L81.3641 73.5L78.9299 76.5L78.1534 75.8699L77.2365 77H75.77V78H71.8844V77H67.9988V78H64.1131V77H60.2275V78H56.3418V77H52.4562V78H48.5705V77H44.6849V78H40.7993V77H36.9136V78H33.028V77H29.1423V78H25.2567V77H21.371V78H17.4854V77H13.5998V78H9.71411V77H5.82846V78H1.94282V77.1926L1.9936 77.1301L1.94282 77.0889V77H1.8333L1.21706 76.5L3.65118 73.5L4.42772 74.1301L6.86184 71.1301L6.0853 70.5L8.51942 67.5L9.29596 68.1301L11.7301 65.1301L10.9535 64.5L13.3877 61.5L14.1642 62.1301L16.5983 59.1301L15.8218 58.5L18.2559 55.5L19.0324 56.1301L21.4666 53.1301L20.69 52.5L23.1241 49.5L23.9007 50.1301L26.3348 47.1301L25.5583 46.5L27.9924 43.5L28.7689 44.1301L31.203 41.1301L30.4265 40.5L32.8606 37.5L33.6372 38.1301L36.0713 35.1301L35.2947 34.5L37.7289 31.5L38.5054 32.1301L40.9395 29.1301L40.163 28.5L42.5971 25.5L43.3736 26.1301L45.8078 23.1301L45.0312 22.5L47.4653 19.5L48.2419 20.1301L50.676 17.1301L49.8995 16.5L52.3336 13.5L53.1101 14.1301L55.5443 11.1301L54.7677 10.5L57.2018 7.5L57.9784 8.13007L60.4125 5.13007L59.6359 4.5Z" stroke="white" stroke-width="2" stroke-dasharray="4 4"/>
</svg>
