<svg width="103" height="89" viewBox="0 0 103 89" fill="none" xmlns="http://www.w3.org/2000/svg">
<path d="M48.5288 5.13461L50.5096 1.71154L51.3752 2.21238L51.5 1.99663L51.6249 2.2124L52.4904 1.71156L54.4712 5.13463L53.6056 5.63547L55.5864 9.05855L56.4519 8.5577L58.4327 11.9808L57.5672 12.4816L59.5479 15.9047L60.4135 15.4039L62.3942 18.8269L61.5287 19.3278L63.5095 22.7509L64.375 22.25L66.3558 25.6731L65.4902 26.1739L67.471 29.597L68.3365 29.0962L70.3173 32.5192L69.4518 33.0201L71.4325 36.4432L72.2981 35.9423L74.2789 39.3654L73.4133 39.8662L75.3941 43.2893L76.2596 42.7885L78.2404 46.2115L77.3749 46.7124L79.3556 50.1355L80.2212 49.6346L82.2019 53.0577L81.3364 53.5585L83.3172 56.9816L84.1827 56.4808L86.1635 59.9038L85.2979 60.4047L87.2787 63.8278L88.1442 63.3269L90.125 66.75L89.2595 67.2508L91.2402 70.6739L92.1058 70.1731L94.0865 73.5962L93.221 74.097L95.2018 77.5201L96.0673 77.0192L98.0481 80.4423L97.1825 80.9432L99.1633 84.3662L100.029 83.8654L102.01 87.2885L101.144 87.7893L101.266 88H101.019V89H97.0577V88H93.0962V89H89.1346V88H85.1731V89H81.2116V88H77.25V89H73.2885V88H69.3269V89H65.3654V88H61.4039V89H57.4423V88H53.4808V89H49.5192V88H45.5577V89H41.5962V88H37.6346V89H33.6731V88H29.7115V89H25.75V88H21.7885V89H17.8269V88H13.8654V89H9.90385V88H5.94231V89H1.98077V88H1.734L1.85593 87.7893L0.990394 87.2884L2.97116 83.8654L3.8367 84.3662L5.81747 80.9431L4.95193 80.4423L6.9327 77.0192L7.79824 77.5201L9.77901 74.097L8.91347 73.5961L10.8942 70.1731L11.7598 70.6739L13.7405 67.2508L12.875 66.75L14.8558 63.3269L15.7213 63.8278L17.7021 60.4047L16.8365 59.9038L18.8173 56.4808L19.6828 56.9816L21.6636 53.5585L20.7981 53.0577L22.7789 49.6346L23.6444 50.1355L25.6252 46.7124L24.7596 46.2115L26.7404 42.7885L27.6059 43.2893L29.5867 39.8662L28.7212 39.3654L30.7019 35.9423L31.5675 36.4431L33.5482 33.0201L32.6827 32.5192L34.6635 29.0962L35.529 29.597L37.5098 26.1739L36.6442 25.6731L38.625 22.25L39.4905 22.7508L41.4713 19.3278L40.6058 18.8269L42.5865 15.4038L43.4521 15.9047L45.4328 12.4816L44.5673 11.9808L46.5481 8.55769L47.4136 9.05854L49.3944 5.63546L48.5288 5.13461Z" stroke="white" stroke-width="2" stroke-dasharray="4 4"/>
</svg>
