<svg width="81" height="81" viewBox="0 0 81 81" fill="none" xmlns="http://www.w3.org/2000/svg">
<path d="M81 78.975H80.3617L80.2336 78.847L80.1056 78.975H80V79.0806L79.5265 79.5541L76.6347 76.6622L77.3418 75.9551L74.4499 73.0632L73.7428 73.7703L70.8509 70.8784L71.558 70.1713L68.6661 67.2795L67.959 67.9866L65.0672 65.0947L65.7743 64.3876L62.8824 61.4957L62.1753 62.2028L59.2834 59.3109L59.9905 58.6038L57.0986 55.712L56.3915 56.4191L53.4997 53.5272L54.2068 52.8201L51.3149 49.9282L50.6078 50.6353L47.7159 47.7435L48.423 47.0364L45.5312 44.1445L44.8241 44.8516L41.9322 41.9597L42.6393 41.2526L39.7474 38.3607L39.0403 39.0678L36.1484 36.176L36.8555 35.4689L33.9637 32.577L33.2566 33.2841L30.3647 30.3922L31.0718 29.6851L28.1799 26.7932L27.4728 27.5003L24.5809 24.6085L25.288 23.9014L22.3962 21.0095L21.6891 21.7166L18.7972 18.8247L19.5043 18.1176L16.6124 15.2257L15.9053 15.9328L13.0134 13.041L13.7205 12.3339L10.8287 9.44198L10.1216 10.1491L7.22968 7.25721L7.93679 6.55011L5.04491 3.65823L4.3378 4.36534L1.44593 1.47346L1.9194 1H2.025V0.894396L2.15304 0.766358L2.025 0.638319V0H6.075V1H10.125V0H14.175V1H18.225V0H22.275V1H26.325V0H30.375V1H34.425V0H38.475V1H42.525V0H46.575V1H50.625V0H54.675V1H58.725V0H62.775V1H66.825V0H70.875V1H74.925V0H78.975V1H80V2.025H81V6.075H80V10.125H81V14.175H80V18.225H81V22.275H80V26.325H81V30.375H80V34.425H81V38.475H80V42.525H81V46.575H80V50.625H81V54.675H80V58.725H81V62.775H80V66.825H81V70.875H80V74.925H81V78.975Z" stroke="white" stroke-width="2" stroke-dasharray="4 4"/>
</svg>
