<svg width="139" height="49" viewBox="0 0 139 49" fill="none" xmlns="http://www.w3.org/2000/svg">
<path d="M64.7614 3.34091L67.9205 1.11363L68.4967 1.93093L69.5 1.22355L70.5033 1.93092L71.0795 1.11363L74.2386 3.3409L73.6624 4.1582L76.8215 6.38547L77.3977 5.56818L80.5568 7.79545L79.9806 8.61275L83.1397 10.84L83.7159 10.0227L86.875 12.25L86.2988 13.0673L89.4579 15.2946L90.0341 14.4773L93.1932 16.7045L92.617 17.5218L95.7761 19.7491L96.3523 18.9318L99.5114 21.1591L98.9351 21.9764L102.094 24.2037L102.67 23.3864L105.83 25.6136L105.253 26.4309L108.412 28.6582L108.989 27.8409L112.148 30.0682L111.572 30.8855L114.731 33.1127L115.307 32.2955L118.466 34.5227L117.89 35.34L121.049 37.5673L121.625 36.75L124.784 38.9773L124.208 39.7946L127.367 42.0218L127.943 41.2045L131.102 43.4318L130.526 44.2491L133.685 46.4764L134.261 45.6591L137.42 47.8864L137.34 48H136.956V48.5453L136.844 48.7037L136.956 48.7824V49H132.868V48H128.779V49H124.691V48H120.603V49H116.515V48H112.426V49H108.338V48H104.25V49H100.162V48H96.0735V49H91.9853V48H87.8971V49H83.8088V48H79.7206V49H75.6324V48H71.5441V49H67.4559V48H63.3676V49H59.2794V48H55.1912V49H51.1029V48H47.0147V49H42.9265V48H38.8382V49H34.75V48H30.6618V49H26.5735V48H22.4853V49H18.3971V48H14.3088V49H10.2206V48H6.13235V49H2.04412V48.7824L2.15576 48.7037L2.04412 48.5453V48H1.65965L1.57953 47.8864L4.73863 45.6591L5.31485 46.4764L8.47395 44.2491L7.89772 43.4318L11.0568 41.2045L11.633 42.0218L14.7921 39.7946L14.2159 38.9773L17.375 36.75L17.9512 37.5673L21.1103 35.34L20.5341 34.5227L23.6932 32.2955L24.2694 33.1127L27.4285 30.8855L26.8523 30.0682L30.0114 27.8409L30.5876 28.6582L33.7467 26.4309L33.1705 25.6136L36.3295 23.3864L36.9058 24.2037L40.0649 21.9764L39.4886 21.1591L42.6477 18.9318L43.2239 19.7491L46.383 17.5218L45.8068 16.7045L48.9659 14.4773L49.5421 15.2946L52.7012 13.0673L52.125 12.25L55.2841 10.0227L55.8603 10.84L59.0194 8.61275L58.4432 7.79545L61.6023 5.56818L62.1785 6.38548L65.3376 4.1582L64.7614 3.34091Z" stroke="white" stroke-width="2" stroke-dasharray="4 4"/>
</svg>
